<mxfile host="app.diagrams.net" modified="2024-01-03T11:31:13.276Z" agent="Mozilla/5.0 (Windows NT 10.0; Win64; x64) AppleWebKit/537.36 (KHTML, like Gecko) Chrome/120.0.0.0 Safari/537.36" etag="cT3G7MqzIMxzvxsKBZ7D" version="22.1.16" type="device" pages="13">
  <diagram id="0xWUhOtxTrhBdRfGQ0oe" name="01 - env">
    <mxGraphModel dx="988" dy="570" grid="1" gridSize="10" guides="1" tooltips="1" connect="1" arrows="1" fold="1" page="1" pageScale="1" pageWidth="1920" pageHeight="1200" math="0" shadow="0">
      <root>
        <mxCell id="0" />
        <mxCell id="1" parent="0" />
        <mxCell id="o5E2NO2Wi73J053AHw4L-1" value="Dev/Test Environment" style="rounded=0;whiteSpace=wrap;html=1;fontStyle=1;fillColor=#dae8fc;strokeColor=#6c8ebf;fontSize=15;" parent="1" vertex="1">
          <mxGeometry x="491.25" y="350" width="270" height="30" as="geometry" />
        </mxCell>
        <mxCell id="o5E2NO2Wi73J053AHw4L-3" value="" style="rounded=0;whiteSpace=wrap;html=1;fontStyle=1;fillColor=#dae8fc;strokeColor=#6c8ebf;fontSize=15;" parent="1" vertex="1">
          <mxGeometry x="491.25" y="380" width="270" height="120" as="geometry" />
        </mxCell>
        <mxCell id="o5E2NO2Wi73J053AHw4L-5" value="Our App" style="rounded=0;whiteSpace=wrap;html=1;fontSize=15;fillColor=#f5f5f5;strokeColor=#666666;fontColor=#333333;" parent="1" vertex="1">
          <mxGeometry x="512.5" y="390" width="227.5" height="30" as="geometry" />
        </mxCell>
        <mxCell id="o5E2NO2Wi73J053AHw4L-17" style="edgeStyle=orthogonalEdgeStyle;rounded=0;orthogonalLoop=1;jettySize=auto;html=1;exitX=0.5;exitY=0;exitDx=0;exitDy=0;entryX=0.147;entryY=1.01;entryDx=0;entryDy=0;entryPerimeter=0;fontSize=11;" parent="1" source="o5E2NO2Wi73J053AHw4L-6" target="o5E2NO2Wi73J053AHw4L-5" edge="1">
          <mxGeometry relative="1" as="geometry" />
        </mxCell>
        <mxCell id="o5E2NO2Wi73J053AHw4L-6" value="SQLite DB" style="rounded=0;whiteSpace=wrap;html=1;fontSize=11;fillColor=#fff2cc;strokeColor=#d6b656;" parent="1" vertex="1">
          <mxGeometry x="512.5" y="450" width="67.5" height="40" as="geometry" />
        </mxCell>
        <mxCell id="o5E2NO2Wi73J053AHw4L-18" style="edgeStyle=orthogonalEdgeStyle;rounded=0;orthogonalLoop=1;jettySize=auto;html=1;exitX=0.5;exitY=0;exitDx=0;exitDy=0;entryX=0.5;entryY=1;entryDx=0;entryDy=0;fontSize=11;" parent="1" source="o5E2NO2Wi73J053AHw4L-7" target="o5E2NO2Wi73J053AHw4L-5" edge="1">
          <mxGeometry relative="1" as="geometry" />
        </mxCell>
        <mxCell id="o5E2NO2Wi73J053AHw4L-7" value="Config for Connecting to SQLite" style="rounded=0;whiteSpace=wrap;html=1;fontSize=11;fillColor=#fff2cc;strokeColor=#d6b656;" parent="1" vertex="1">
          <mxGeometry x="592.5" y="450" width="67.5" height="40" as="geometry" />
        </mxCell>
        <mxCell id="o5E2NO2Wi73J053AHw4L-19" style="edgeStyle=orthogonalEdgeStyle;rounded=0;orthogonalLoop=1;jettySize=auto;html=1;exitX=0.5;exitY=0;exitDx=0;exitDy=0;entryX=0.842;entryY=1.01;entryDx=0;entryDy=0;entryPerimeter=0;fontSize=11;" parent="1" source="o5E2NO2Wi73J053AHw4L-16" target="o5E2NO2Wi73J053AHw4L-5" edge="1">
          <mxGeometry relative="1" as="geometry" />
        </mxCell>
        <mxCell id="o5E2NO2Wi73J053AHw4L-16" value="Cookie Key for Cookie-Session" style="rounded=0;whiteSpace=wrap;html=1;fontSize=11;fillColor=#fff2cc;strokeColor=#d6b656;" parent="1" vertex="1">
          <mxGeometry x="670" y="450" width="67.5" height="40" as="geometry" />
        </mxCell>
        <mxCell id="o5E2NO2Wi73J053AHw4L-20" value="Production Environment" style="rounded=0;whiteSpace=wrap;html=1;fontStyle=1;fillColor=#d5e8d4;strokeColor=#82b366;fontSize=15;" parent="1" vertex="1">
          <mxGeometry x="491.25" y="525" width="270" height="30" as="geometry" />
        </mxCell>
        <mxCell id="o5E2NO2Wi73J053AHw4L-21" value="" style="rounded=0;whiteSpace=wrap;html=1;fontStyle=1;fillColor=#d5e8d4;strokeColor=#82b366;fontSize=15;" parent="1" vertex="1">
          <mxGeometry x="491.25" y="555" width="270" height="120" as="geometry" />
        </mxCell>
        <mxCell id="o5E2NO2Wi73J053AHw4L-22" value="Our App" style="rounded=0;whiteSpace=wrap;html=1;fontSize=15;fillColor=#f5f5f5;strokeColor=#666666;fontColor=#333333;" parent="1" vertex="1">
          <mxGeometry x="512.5" y="565" width="227.5" height="30" as="geometry" />
        </mxCell>
        <mxCell id="o5E2NO2Wi73J053AHw4L-23" style="edgeStyle=orthogonalEdgeStyle;rounded=0;orthogonalLoop=1;jettySize=auto;html=1;exitX=0.5;exitY=0;exitDx=0;exitDy=0;entryX=0.147;entryY=1.01;entryDx=0;entryDy=0;entryPerimeter=0;fontSize=11;" parent="1" source="o5E2NO2Wi73J053AHw4L-24" target="o5E2NO2Wi73J053AHw4L-22" edge="1">
          <mxGeometry relative="1" as="geometry" />
        </mxCell>
        <mxCell id="o5E2NO2Wi73J053AHw4L-24" value="Postgres DB" style="rounded=0;whiteSpace=wrap;html=1;fontSize=11;fillColor=#fff2cc;strokeColor=#d6b656;" parent="1" vertex="1">
          <mxGeometry x="512.5" y="625" width="67.5" height="40" as="geometry" />
        </mxCell>
        <mxCell id="o5E2NO2Wi73J053AHw4L-25" style="edgeStyle=orthogonalEdgeStyle;rounded=0;orthogonalLoop=1;jettySize=auto;html=1;exitX=0.5;exitY=0;exitDx=0;exitDy=0;entryX=0.5;entryY=1;entryDx=0;entryDy=0;fontSize=11;" parent="1" source="o5E2NO2Wi73J053AHw4L-26" target="o5E2NO2Wi73J053AHw4L-22" edge="1">
          <mxGeometry relative="1" as="geometry" />
        </mxCell>
        <mxCell id="o5E2NO2Wi73J053AHw4L-26" value="Config for Connecting to Postgres" style="rounded=0;whiteSpace=wrap;html=1;fontSize=11;fillColor=#fff2cc;strokeColor=#d6b656;" parent="1" vertex="1">
          <mxGeometry x="592.5" y="625" width="67.5" height="40" as="geometry" />
        </mxCell>
        <mxCell id="o5E2NO2Wi73J053AHw4L-27" style="edgeStyle=orthogonalEdgeStyle;rounded=0;orthogonalLoop=1;jettySize=auto;html=1;exitX=0.5;exitY=0;exitDx=0;exitDy=0;entryX=0.842;entryY=1.01;entryDx=0;entryDy=0;entryPerimeter=0;fontSize=11;" parent="1" source="o5E2NO2Wi73J053AHw4L-28" target="o5E2NO2Wi73J053AHw4L-22" edge="1">
          <mxGeometry relative="1" as="geometry" />
        </mxCell>
        <mxCell id="o5E2NO2Wi73J053AHw4L-28" value="Cookie Key for Cookie-Session" style="rounded=0;whiteSpace=wrap;html=1;fontSize=11;fillColor=#fff2cc;strokeColor=#d6b656;" parent="1" vertex="1">
          <mxGeometry x="670" y="625" width="67.5" height="40" as="geometry" />
        </mxCell>
      </root>
    </mxGraphModel>
  </diagram>
  <diagram id="FwJIQ9v5jiHpXsBx04-L" name="02 - synch">
    <mxGraphModel dx="988" dy="570" grid="1" gridSize="10" guides="1" tooltips="1" connect="1" arrows="1" fold="1" page="1" pageScale="1" pageWidth="1920" pageHeight="1200" math="0" shadow="0">
      <root>
        <mxCell id="58PpXmn8ZcJiPy0kHB9E-0" />
        <mxCell id="58PpXmn8ZcJiPy0kHB9E-1" parent="58PpXmn8ZcJiPy0kHB9E-0" />
        <mxCell id="58PpXmn8ZcJiPy0kHB9E-2" value="Database" style="rounded=0;whiteSpace=wrap;html=1;fontSize=11;fontStyle=1;fillColor=#dae8fc;strokeColor=#6c8ebf;" parent="58PpXmn8ZcJiPy0kHB9E-1" vertex="1">
          <mxGeometry x="590" y="210" width="200" height="20" as="geometry" />
        </mxCell>
        <mxCell id="58PpXmn8ZcJiPy0kHB9E-3" value="" style="rounded=0;whiteSpace=wrap;html=1;fontSize=11;fontStyle=1;fillColor=#dae8fc;strokeColor=#6c8ebf;" parent="58PpXmn8ZcJiPy0kHB9E-1" vertex="1">
          <mxGeometry x="590" y="230" width="200" height="110" as="geometry" />
        </mxCell>
        <mxCell id="58PpXmn8ZcJiPy0kHB9E-4" value="Table of Users" style="rounded=0;whiteSpace=wrap;html=1;fontSize=11;fillColor=#d5e8d4;strokeColor=#82b366;fontStyle=1" parent="58PpXmn8ZcJiPy0kHB9E-1" vertex="1">
          <mxGeometry x="600" y="240" width="180" height="20" as="geometry" />
        </mxCell>
        <mxCell id="58PpXmn8ZcJiPy0kHB9E-5" value="id&lt;br style=&quot;font-size: 8px;&quot;&gt;number" style="rounded=0;whiteSpace=wrap;html=1;fontSize=8;fillColor=#f5f5f5;strokeColor=#666666;fontColor=#333333;fontStyle=2" parent="58PpXmn8ZcJiPy0kHB9E-1" vertex="1">
          <mxGeometry x="600" y="260" width="60" height="20" as="geometry" />
        </mxCell>
        <mxCell id="58PpXmn8ZcJiPy0kHB9E-6" value="email&lt;br style=&quot;font-size: 8px;&quot;&gt;string" style="rounded=0;whiteSpace=wrap;html=1;fontSize=8;fillColor=#f5f5f5;strokeColor=#666666;fontColor=#333333;fontStyle=2" parent="58PpXmn8ZcJiPy0kHB9E-1" vertex="1">
          <mxGeometry x="660" y="260" width="60" height="20" as="geometry" />
        </mxCell>
        <mxCell id="58PpXmn8ZcJiPy0kHB9E-7" value="password&lt;br style=&quot;font-size: 8px;&quot;&gt;string" style="rounded=0;whiteSpace=wrap;html=1;fontSize=8;fillColor=#f5f5f5;strokeColor=#666666;fontColor=#333333;fontStyle=2" parent="58PpXmn8ZcJiPy0kHB9E-1" vertex="1">
          <mxGeometry x="720" y="260" width="60" height="20" as="geometry" />
        </mxCell>
        <mxCell id="58PpXmn8ZcJiPy0kHB9E-8" value="1" style="rounded=0;whiteSpace=wrap;html=1;fontSize=8;fontStyle=0" parent="58PpXmn8ZcJiPy0kHB9E-1" vertex="1">
          <mxGeometry x="600" y="280" width="60" height="20" as="geometry" />
        </mxCell>
        <mxCell id="58PpXmn8ZcJiPy0kHB9E-9" value="asdf@asdf.com" style="rounded=0;whiteSpace=wrap;html=1;fontSize=8;fontStyle=0" parent="58PpXmn8ZcJiPy0kHB9E-1" vertex="1">
          <mxGeometry x="660" y="280" width="60" height="20" as="geometry" />
        </mxCell>
        <mxCell id="58PpXmn8ZcJiPy0kHB9E-10" value="asdfkm" style="rounded=0;whiteSpace=wrap;html=1;fontSize=8;fontStyle=0" parent="58PpXmn8ZcJiPy0kHB9E-1" vertex="1">
          <mxGeometry x="720" y="280" width="60" height="20" as="geometry" />
        </mxCell>
        <mxCell id="58PpXmn8ZcJiPy0kHB9E-12" style="edgeStyle=orthogonalEdgeStyle;rounded=0;orthogonalLoop=1;jettySize=auto;html=1;exitX=1;exitY=0.5;exitDx=0;exitDy=0;fontSize=17;" parent="58PpXmn8ZcJiPy0kHB9E-1" source="58PpXmn8ZcJiPy0kHB9E-11" target="58PpXmn8ZcJiPy0kHB9E-4" edge="1">
          <mxGeometry relative="1" as="geometry" />
        </mxCell>
        <mxCell id="58PpXmn8ZcJiPy0kHB9E-14" style="edgeStyle=orthogonalEdgeStyle;rounded=0;orthogonalLoop=1;jettySize=auto;html=1;exitX=0.5;exitY=1;exitDx=0;exitDy=0;fontSize=17;" parent="58PpXmn8ZcJiPy0kHB9E-1" source="58PpXmn8ZcJiPy0kHB9E-11" target="58PpXmn8ZcJiPy0kHB9E-13" edge="1">
          <mxGeometry relative="1" as="geometry" />
        </mxCell>
        <mxCell id="58PpXmn8ZcJiPy0kHB9E-11" value="TypeORM" style="rounded=0;whiteSpace=wrap;html=1;fontSize=17;" parent="58PpXmn8ZcJiPy0kHB9E-1" vertex="1">
          <mxGeometry x="380" y="230" width="170" height="40" as="geometry" />
        </mxCell>
        <mxCell id="58PpXmn8ZcJiPy0kHB9E-13" value="class User Entity" style="rounded=0;whiteSpace=wrap;html=1;fontSize=17;fillColor=#f5f5f5;strokeColor=#666666;fontColor=#333333;" parent="58PpXmn8ZcJiPy0kHB9E-1" vertex="1">
          <mxGeometry x="380" y="290" width="170" height="30" as="geometry" />
        </mxCell>
        <mxCell id="58PpXmn8ZcJiPy0kHB9E-17" style="edgeStyle=orthogonalEdgeStyle;rounded=0;orthogonalLoop=1;jettySize=auto;html=1;exitX=1;exitY=0.5;exitDx=0;exitDy=0;fontSize=11;" parent="58PpXmn8ZcJiPy0kHB9E-1" source="58PpXmn8ZcJiPy0kHB9E-15" target="58PpXmn8ZcJiPy0kHB9E-16" edge="1">
          <mxGeometry relative="1" as="geometry" />
        </mxCell>
        <mxCell id="58PpXmn8ZcJiPy0kHB9E-15" value="id" style="rounded=0;whiteSpace=wrap;html=1;fontSize=11;fillColor=#f5f5f5;strokeColor=#666666;fontColor=#333333;" parent="58PpXmn8ZcJiPy0kHB9E-1" vertex="1">
          <mxGeometry x="380" y="320" width="70" height="20" as="geometry" />
        </mxCell>
        <mxCell id="58PpXmn8ZcJiPy0kHB9E-16" value="number" style="rounded=0;whiteSpace=wrap;html=1;fontSize=11;fillColor=#f5f5f5;strokeColor=#666666;fontColor=#333333;" parent="58PpXmn8ZcJiPy0kHB9E-1" vertex="1">
          <mxGeometry x="470" y="320" width="80" height="20" as="geometry" />
        </mxCell>
        <mxCell id="58PpXmn8ZcJiPy0kHB9E-18" style="edgeStyle=orthogonalEdgeStyle;rounded=0;orthogonalLoop=1;jettySize=auto;html=1;exitX=1;exitY=0.5;exitDx=0;exitDy=0;fontSize=11;" parent="58PpXmn8ZcJiPy0kHB9E-1" source="58PpXmn8ZcJiPy0kHB9E-19" target="58PpXmn8ZcJiPy0kHB9E-20" edge="1">
          <mxGeometry relative="1" as="geometry" />
        </mxCell>
        <mxCell id="58PpXmn8ZcJiPy0kHB9E-19" value="email" style="rounded=0;whiteSpace=wrap;html=1;fontSize=11;fillColor=#f5f5f5;strokeColor=#666666;fontColor=#333333;" parent="58PpXmn8ZcJiPy0kHB9E-1" vertex="1">
          <mxGeometry x="380" y="340" width="70" height="20" as="geometry" />
        </mxCell>
        <mxCell id="58PpXmn8ZcJiPy0kHB9E-20" value="string" style="rounded=0;whiteSpace=wrap;html=1;fontSize=11;fillColor=#f5f5f5;strokeColor=#666666;fontColor=#333333;" parent="58PpXmn8ZcJiPy0kHB9E-1" vertex="1">
          <mxGeometry x="470" y="340" width="80" height="20" as="geometry" />
        </mxCell>
      </root>
    </mxGraphModel>
  </diagram>
  <diagram id="7hgYPBMmngmI9M56HLC9" name="03 - synch">
    <mxGraphModel dx="988" dy="570" grid="1" gridSize="10" guides="1" tooltips="1" connect="1" arrows="1" fold="1" page="1" pageScale="1" pageWidth="1920" pageHeight="1200" math="0" shadow="0">
      <root>
        <mxCell id="r0aqXot1c8OhTU4LJpem-0" />
        <mxCell id="r0aqXot1c8OhTU4LJpem-1" parent="r0aqXot1c8OhTU4LJpem-0" />
        <mxCell id="r0aqXot1c8OhTU4LJpem-4" style="edgeStyle=orthogonalEdgeStyle;rounded=0;orthogonalLoop=1;jettySize=auto;html=1;exitX=0.5;exitY=1;exitDx=0;exitDy=0;fontSize=18;" parent="r0aqXot1c8OhTU4LJpem-1" source="r0aqXot1c8OhTU4LJpem-2" target="r0aqXot1c8OhTU4LJpem-3" edge="1">
          <mxGeometry relative="1" as="geometry" />
        </mxCell>
        <mxCell id="r0aqXot1c8OhTU4LJpem-2" value="During development, synchronize: true is very useful!" style="rounded=0;whiteSpace=wrap;html=1;fontSize=18;" parent="r0aqXot1c8OhTU4LJpem-1" vertex="1">
          <mxGeometry x="590" y="350" width="350" height="50" as="geometry" />
        </mxCell>
        <mxCell id="r0aqXot1c8OhTU4LJpem-3" value="&lt;i&gt;Before&lt;/i&gt;&amp;nbsp;deploying your app for the first time, I highly recommend using synchronize: false and &lt;i&gt;never using it again&lt;/i&gt;" style="rounded=0;whiteSpace=wrap;html=1;fontSize=18;fillColor=#f8cecc;strokeColor=#b85450;" parent="r0aqXot1c8OhTU4LJpem-1" vertex="1">
          <mxGeometry x="590" y="430" width="350" height="100" as="geometry" />
        </mxCell>
      </root>
    </mxGraphModel>
  </diagram>
  <diagram id="44a8c3a6MIk-BC8vAudJ" name="05 - migration">
    <mxGraphModel dx="988" dy="570" grid="1" gridSize="10" guides="1" tooltips="1" connect="1" arrows="1" fold="1" page="1" pageScale="1" pageWidth="1920" pageHeight="1200" math="0" shadow="0">
      <root>
        <mxCell id="_Dq1SOj3m3c4D0l3-WqI-0" />
        <mxCell id="_Dq1SOj3m3c4D0l3-WqI-1" parent="_Dq1SOj3m3c4D0l3-WqI-0" />
        <mxCell id="_Dq1SOj3m3c4D0l3-WqI-2" value="" style="shape=note;whiteSpace=wrap;html=1;backgroundOutline=1;darkOpacity=0.05;fontSize=18;size=21;" parent="_Dq1SOj3m3c4D0l3-WqI-1" vertex="1">
          <mxGeometry x="630" y="350" width="190" height="200" as="geometry" />
        </mxCell>
        <mxCell id="_Dq1SOj3m3c4D0l3-WqI-3" value="Migration File" style="text;html=1;strokeColor=none;fillColor=none;align=center;verticalAlign=middle;whiteSpace=wrap;rounded=0;fontSize=18;fontStyle=2" parent="_Dq1SOj3m3c4D0l3-WqI-1" vertex="1">
          <mxGeometry x="665" y="325" width="120" height="20" as="geometry" />
        </mxCell>
        <mxCell id="_Dq1SOj3m3c4D0l3-WqI-4" value="up()" style="rounded=0;whiteSpace=wrap;html=1;fontSize=18;fillColor=#dae8fc;strokeColor=#6c8ebf;fontStyle=1" parent="_Dq1SOj3m3c4D0l3-WqI-1" vertex="1">
          <mxGeometry x="645" y="380" width="160" height="30" as="geometry" />
        </mxCell>
        <mxCell id="_Dq1SOj3m3c4D0l3-WqI-5" value="Describe how to &#39;update&#39; the structure of our DB" style="rounded=0;whiteSpace=wrap;html=1;fontSize=12;fillColor=#dae8fc;strokeColor=#6c8ebf;" parent="_Dq1SOj3m3c4D0l3-WqI-1" vertex="1">
          <mxGeometry x="645" y="410" width="160" height="40" as="geometry" />
        </mxCell>
        <mxCell id="_Dq1SOj3m3c4D0l3-WqI-6" value="&lt;b&gt;down()&lt;/b&gt;" style="rounded=0;whiteSpace=wrap;html=1;fontSize=18;fillColor=#fff2cc;strokeColor=#d6b656;" parent="_Dq1SOj3m3c4D0l3-WqI-1" vertex="1">
          <mxGeometry x="645" y="470" width="160" height="30" as="geometry" />
        </mxCell>
        <mxCell id="_Dq1SOj3m3c4D0l3-WqI-7" value="Describe how to undo the steps in &#39;up()&#39;" style="rounded=0;whiteSpace=wrap;html=1;fontSize=12;fillColor=#fff2cc;strokeColor=#d6b656;" parent="_Dq1SOj3m3c4D0l3-WqI-1" vertex="1">
          <mxGeometry x="645" y="500" width="160" height="40" as="geometry" />
        </mxCell>
      </root>
    </mxGraphModel>
  </diagram>
  <diagram name="06 - migration" id="WGbP6aJdEIEBUWYZj9fJ">
    <mxGraphModel dx="988" dy="570" grid="1" gridSize="10" guides="1" tooltips="1" connect="1" arrows="1" fold="1" page="1" pageScale="1" pageWidth="1920" pageHeight="1200" math="0" shadow="0">
      <root>
        <mxCell id="4FwfKbKILwjuW_a14CdU-0" />
        <mxCell id="4FwfKbKILwjuW_a14CdU-1" parent="4FwfKbKILwjuW_a14CdU-0" />
        <mxCell id="4FwfKbKILwjuW_a14CdU-2" value="" style="shape=note;whiteSpace=wrap;html=1;backgroundOutline=1;darkOpacity=0.05;fontSize=18;size=21;" parent="4FwfKbKILwjuW_a14CdU-1" vertex="1">
          <mxGeometry x="630" y="350" width="190" height="200" as="geometry" />
        </mxCell>
        <mxCell id="4FwfKbKILwjuW_a14CdU-3" value="Migration File" style="text;html=1;strokeColor=none;fillColor=none;align=center;verticalAlign=middle;whiteSpace=wrap;rounded=0;fontSize=18;fontStyle=2" parent="4FwfKbKILwjuW_a14CdU-1" vertex="1">
          <mxGeometry x="640" y="325" width="165" height="20" as="geometry" />
        </mxCell>
        <mxCell id="4FwfKbKILwjuW_a14CdU-4" value="up()" style="rounded=0;whiteSpace=wrap;html=1;fontSize=18;fillColor=#dae8fc;strokeColor=#6c8ebf;fontStyle=1" parent="4FwfKbKILwjuW_a14CdU-1" vertex="1">
          <mxGeometry x="645" y="380" width="160" height="30" as="geometry" />
        </mxCell>
        <mxCell id="4FwfKbKILwjuW_a14CdU-5" value="&lt;i style=&quot;font-size: 9px;&quot;&gt;- Add a table called &#39;users&#39;&lt;br style=&quot;font-size: 9px;&quot;&gt;- Give the table a column &#39;email&#39;&lt;br style=&quot;font-size: 9px;&quot;&gt;- Give the table a column &#39;password&#39;&lt;br style=&quot;font-size: 9px;&quot;&gt;&lt;/i&gt;" style="rounded=0;whiteSpace=wrap;html=1;fontSize=9;fillColor=#dae8fc;strokeColor=#6c8ebf;align=left;spacingLeft=2;" parent="4FwfKbKILwjuW_a14CdU-1" vertex="1">
          <mxGeometry x="645" y="410" width="160" height="40" as="geometry" />
        </mxCell>
        <mxCell id="4FwfKbKILwjuW_a14CdU-6" value="&lt;b&gt;down()&lt;/b&gt;" style="rounded=0;whiteSpace=wrap;html=1;fontSize=18;fillColor=#fff2cc;strokeColor=#d6b656;" parent="4FwfKbKILwjuW_a14CdU-1" vertex="1">
          <mxGeometry x="645" y="470" width="160" height="30" as="geometry" />
        </mxCell>
        <mxCell id="4FwfKbKILwjuW_a14CdU-7" value="- Delete the table called &#39;users&#39;" style="rounded=0;whiteSpace=wrap;html=1;fontSize=9;fillColor=#fff2cc;strokeColor=#d6b656;align=left;spacingLeft=2;fontStyle=2" parent="4FwfKbKILwjuW_a14CdU-1" vertex="1">
          <mxGeometry x="645" y="500" width="160" height="40" as="geometry" />
        </mxCell>
      </root>
    </mxGraphModel>
  </diagram>
  <diagram name="07 - migrations" id="-nSRFm3FLahyfUc62Bra">
    <mxGraphModel dx="531" dy="327" grid="1" gridSize="10" guides="1" tooltips="1" connect="1" arrows="1" fold="1" page="1" pageScale="1" pageWidth="1920" pageHeight="1200" math="0" shadow="0">
      <root>
        <mxCell id="lP41LdEHljcafri-YR3J-0" />
        <mxCell id="lP41LdEHljcafri-YR3J-1" parent="lP41LdEHljcafri-YR3J-0" />
        <mxCell id="lP41LdEHljcafri-YR3J-15" style="edgeStyle=orthogonalEdgeStyle;rounded=0;orthogonalLoop=1;jettySize=auto;html=1;exitX=0;exitY=0;exitDx=190;exitDy=110.5;exitPerimeter=0;entryX=0.003;entryY=0.553;entryDx=0;entryDy=0;entryPerimeter=0;fontSize=9;" edge="1" parent="lP41LdEHljcafri-YR3J-1" source="lP41LdEHljcafri-YR3J-2" target="lP41LdEHljcafri-YR3J-8">
          <mxGeometry relative="1" as="geometry" />
        </mxCell>
        <mxCell id="lP41LdEHljcafri-YR3J-2" value="" style="shape=note;whiteSpace=wrap;html=1;backgroundOutline=1;darkOpacity=0.05;fontSize=18;size=21;" vertex="1" parent="lP41LdEHljcafri-YR3J-1">
          <mxGeometry x="630" y="350" width="190" height="200" as="geometry" />
        </mxCell>
        <mxCell id="lP41LdEHljcafri-YR3J-3" value="Migration File #1" style="text;html=1;strokeColor=none;fillColor=none;align=center;verticalAlign=middle;whiteSpace=wrap;rounded=0;fontSize=18;fontStyle=2" vertex="1" parent="lP41LdEHljcafri-YR3J-1">
          <mxGeometry x="640" y="325" width="165" height="20" as="geometry" />
        </mxCell>
        <mxCell id="lP41LdEHljcafri-YR3J-4" value="up()" style="rounded=0;whiteSpace=wrap;html=1;fontSize=18;fillColor=#dae8fc;strokeColor=#6c8ebf;fontStyle=1" vertex="1" parent="lP41LdEHljcafri-YR3J-1">
          <mxGeometry x="645" y="380" width="160" height="30" as="geometry" />
        </mxCell>
        <mxCell id="lP41LdEHljcafri-YR3J-5" value="&lt;i style=&quot;font-size: 9px;&quot;&gt;- Add a table called &#39;users&#39;&lt;br style=&quot;font-size: 9px;&quot;&gt;- Give the table a column &#39;email&#39;&lt;br style=&quot;font-size: 9px;&quot;&gt;- Give the table a column &#39;password&#39;&lt;br style=&quot;font-size: 9px;&quot;&gt;&lt;/i&gt;" style="rounded=0;whiteSpace=wrap;html=1;fontSize=9;fillColor=#dae8fc;strokeColor=#6c8ebf;align=left;spacingLeft=2;" vertex="1" parent="lP41LdEHljcafri-YR3J-1">
          <mxGeometry x="645" y="410" width="160" height="40" as="geometry" />
        </mxCell>
        <mxCell id="lP41LdEHljcafri-YR3J-6" value="&lt;b&gt;down()&lt;/b&gt;" style="rounded=0;whiteSpace=wrap;html=1;fontSize=18;fillColor=#fff2cc;strokeColor=#d6b656;" vertex="1" parent="lP41LdEHljcafri-YR3J-1">
          <mxGeometry x="645" y="470" width="160" height="30" as="geometry" />
        </mxCell>
        <mxCell id="lP41LdEHljcafri-YR3J-7" value="- Delete the table called &#39;users&#39;" style="rounded=0;whiteSpace=wrap;html=1;fontSize=9;fillColor=#fff2cc;strokeColor=#d6b656;align=left;spacingLeft=2;fontStyle=2" vertex="1" parent="lP41LdEHljcafri-YR3J-1">
          <mxGeometry x="645" y="500" width="160" height="40" as="geometry" />
        </mxCell>
        <mxCell id="lP41LdEHljcafri-YR3J-8" value="" style="shape=note;whiteSpace=wrap;html=1;backgroundOutline=1;darkOpacity=0.05;fontSize=18;size=21;" vertex="1" parent="lP41LdEHljcafri-YR3J-1">
          <mxGeometry x="865" y="350" width="190" height="200" as="geometry" />
        </mxCell>
        <mxCell id="lP41LdEHljcafri-YR3J-9" value="Migration File #2" style="text;html=1;strokeColor=none;fillColor=none;align=center;verticalAlign=middle;whiteSpace=wrap;rounded=0;fontSize=18;fontStyle=2" vertex="1" parent="lP41LdEHljcafri-YR3J-1">
          <mxGeometry x="875" y="325" width="165" height="20" as="geometry" />
        </mxCell>
        <mxCell id="lP41LdEHljcafri-YR3J-10" value="up()" style="rounded=0;whiteSpace=wrap;html=1;fontSize=18;fillColor=#dae8fc;strokeColor=#6c8ebf;fontStyle=1" vertex="1" parent="lP41LdEHljcafri-YR3J-1">
          <mxGeometry x="880" y="380" width="160" height="30" as="geometry" />
        </mxCell>
        <mxCell id="lP41LdEHljcafri-YR3J-11" value="&lt;i style=&quot;font-size: 9px&quot;&gt;- Add a table called &#39;reports&#39;&lt;br&gt;- Give it columns of &#39;price&#39;, &#39;lat&#39;, &#39;lng&#39;....&lt;br style=&quot;font-size: 9px&quot;&gt;&lt;/i&gt;" style="rounded=0;whiteSpace=wrap;html=1;fontSize=9;fillColor=#dae8fc;strokeColor=#6c8ebf;align=left;spacingLeft=2;" vertex="1" parent="lP41LdEHljcafri-YR3J-1">
          <mxGeometry x="880" y="410" width="160" height="40" as="geometry" />
        </mxCell>
        <mxCell id="lP41LdEHljcafri-YR3J-12" value="&lt;b&gt;down()&lt;/b&gt;" style="rounded=0;whiteSpace=wrap;html=1;fontSize=18;fillColor=#fff2cc;strokeColor=#d6b656;" vertex="1" parent="lP41LdEHljcafri-YR3J-1">
          <mxGeometry x="880" y="470" width="160" height="30" as="geometry" />
        </mxCell>
        <mxCell id="lP41LdEHljcafri-YR3J-13" value="- Delete the table called &#39;reports&#39;" style="rounded=0;whiteSpace=wrap;html=1;fontSize=9;fillColor=#fff2cc;strokeColor=#d6b656;align=left;spacingLeft=2;fontStyle=2" vertex="1" parent="lP41LdEHljcafri-YR3J-1">
          <mxGeometry x="880" y="500" width="160" height="40" as="geometry" />
        </mxCell>
      </root>
    </mxGraphModel>
  </diagram>
  <diagram id="R4Mt0tTYOJQp8uQuiP1l" name="04 - migrations">
    <mxGraphModel dx="988" dy="570" grid="1" gridSize="10" guides="1" tooltips="1" connect="1" arrows="1" fold="1" page="1" pageScale="1" pageWidth="1920" pageHeight="1200" math="0" shadow="0">
      <root>
        <mxCell id="d4_Fr9lRgz-bA-FBKXeH-0" />
        <mxCell id="d4_Fr9lRgz-bA-FBKXeH-1" parent="d4_Fr9lRgz-bA-FBKXeH-0" />
        <mxCell id="p2gY6geZ5qwPzViUmzuA-0" value="Stop the development server" style="rounded=0;whiteSpace=wrap;html=1;fontSize=12;align=center;" parent="d4_Fr9lRgz-bA-FBKXeH-1" vertex="1">
          <mxGeometry x="612.5" y="330" width="305" height="30" as="geometry" />
        </mxCell>
        <mxCell id="p2gY6geZ5qwPzViUmzuA-2" value="Creating and Running Migrations During Development, Test, Production" style="text;html=1;strokeColor=none;fillColor=none;align=center;verticalAlign=middle;whiteSpace=wrap;rounded=0;fontSize=12;fontStyle=1" parent="d4_Fr9lRgz-bA-FBKXeH-1" vertex="1">
          <mxGeometry x="651.88" y="300" width="226.25" height="20" as="geometry" />
        </mxCell>
        <mxCell id="p2gY6geZ5qwPzViUmzuA-3" value="Use the TypeORM CLI to generate an empty migration file" style="rounded=0;whiteSpace=wrap;html=1;fontSize=12;align=center;" parent="d4_Fr9lRgz-bA-FBKXeH-1" vertex="1">
          <mxGeometry x="612.5" y="370" width="305" height="30" as="geometry" />
        </mxCell>
        <mxCell id="p2gY6geZ5qwPzViUmzuA-4" value="Add some code to change our DB in the migration file" style="rounded=0;whiteSpace=wrap;html=1;fontSize=12;align=center;" parent="d4_Fr9lRgz-bA-FBKXeH-1" vertex="1">
          <mxGeometry x="612.5" y="410" width="305" height="30" as="geometry" />
        </mxCell>
        <mxCell id="p2gY6geZ5qwPzViUmzuA-5" value="Use the TypeORM CLI to apply the migration to the DB" style="rounded=0;whiteSpace=wrap;html=1;fontSize=12;align=center;" parent="d4_Fr9lRgz-bA-FBKXeH-1" vertex="1">
          <mxGeometry x="612.5" y="450" width="305" height="30" as="geometry" />
        </mxCell>
        <mxCell id="p2gY6geZ5qwPzViUmzuA-6" value="DB is updated! Restart the development server" style="rounded=0;whiteSpace=wrap;html=1;fontSize=12;align=center;" parent="d4_Fr9lRgz-bA-FBKXeH-1" vertex="1">
          <mxGeometry x="612.5" y="490" width="305" height="30" as="geometry" />
        </mxCell>
        <mxCell id="p2gY6geZ5qwPzViUmzuA-7" value="" style="endArrow=classic;html=1;fontSize=12;" parent="d4_Fr9lRgz-bA-FBKXeH-1" edge="1">
          <mxGeometry width="50" height="50" relative="1" as="geometry">
            <mxPoint x="600" y="330" as="sourcePoint" />
            <mxPoint x="600" y="520" as="targetPoint" />
          </mxGeometry>
        </mxCell>
      </root>
    </mxGraphModel>
  </diagram>
  <diagram name="05 - migrations" id="AxUnPA7_JD03lq4voFFW">
    <mxGraphModel dx="477" dy="294" grid="1" gridSize="10" guides="1" tooltips="1" connect="1" arrows="1" fold="1" page="1" pageScale="1" pageWidth="1920" pageHeight="1200" math="0" shadow="0">
      <root>
        <mxCell id="VO9kx1iVmAky1tUp0VM4-0" />
        <mxCell id="VO9kx1iVmAky1tUp0VM4-1" parent="VO9kx1iVmAky1tUp0VM4-0" />
        <mxCell id="VO9kx1iVmAky1tUp0VM4-2" value="Stop the development server" style="rounded=0;whiteSpace=wrap;html=1;fontSize=12;align=center;" vertex="1" parent="VO9kx1iVmAky1tUp0VM4-1">
          <mxGeometry x="612.5" y="330" width="250" height="30" as="geometry" />
        </mxCell>
        <mxCell id="VO9kx1iVmAky1tUp0VM4-3" value="Creating and Running Migrations During Development" style="text;html=1;strokeColor=none;fillColor=none;align=center;verticalAlign=middle;whiteSpace=wrap;rounded=0;fontSize=12;fontStyle=1" vertex="1" parent="VO9kx1iVmAky1tUp0VM4-1">
          <mxGeometry x="636.25" y="300" width="202.5" height="20" as="geometry" />
        </mxCell>
        <mxCell id="VO9kx1iVmAky1tUp0VM4-4" value="Use the TypeORM CLI to generate an empty migration file" style="rounded=0;whiteSpace=wrap;html=1;fontSize=12;align=center;" vertex="1" parent="VO9kx1iVmAky1tUp0VM4-1">
          <mxGeometry x="612.5" y="370" width="250" height="30" as="geometry" />
        </mxCell>
        <mxCell id="VO9kx1iVmAky1tUp0VM4-5" value="Add some code to change our DB in the migration file" style="rounded=0;whiteSpace=wrap;html=1;fontSize=12;align=center;" vertex="1" parent="VO9kx1iVmAky1tUp0VM4-1">
          <mxGeometry x="612.5" y="410" width="250" height="30" as="geometry" />
        </mxCell>
        <mxCell id="VO9kx1iVmAky1tUp0VM4-6" value="Use the TypeORM CLI to apply the migration to the DB" style="rounded=0;whiteSpace=wrap;html=1;fontSize=12;align=center;" vertex="1" parent="VO9kx1iVmAky1tUp0VM4-1">
          <mxGeometry x="612.5" y="450" width="250" height="30" as="geometry" />
        </mxCell>
        <mxCell id="VO9kx1iVmAky1tUp0VM4-7" value="DB is updated! Restart the development server" style="rounded=0;whiteSpace=wrap;html=1;fontSize=12;align=center;" vertex="1" parent="VO9kx1iVmAky1tUp0VM4-1">
          <mxGeometry x="612.5" y="490" width="250" height="30" as="geometry" />
        </mxCell>
        <mxCell id="VO9kx1iVmAky1tUp0VM4-8" value="" style="endArrow=classic;html=1;fontSize=12;" edge="1" parent="VO9kx1iVmAky1tUp0VM4-1">
          <mxGeometry width="50" height="50" relative="1" as="geometry">
            <mxPoint x="600" y="330" as="sourcePoint" />
            <mxPoint x="600" y="520" as="targetPoint" />
          </mxGeometry>
        </mxCell>
        <mxCell id="VO9kx1iVmAky1tUp0VM4-10" style="edgeStyle=orthogonalEdgeStyle;rounded=0;orthogonalLoop=1;jettySize=auto;html=1;exitX=0;exitY=0.5;exitDx=0;exitDy=0;entryX=1;entryY=0.5;entryDx=0;entryDy=0;fontSize=12;" edge="1" parent="VO9kx1iVmAky1tUp0VM4-1" source="VO9kx1iVmAky1tUp0VM4-9">
          <mxGeometry relative="1" as="geometry">
            <mxPoint x="862.5" y="466.9999999999999" as="targetPoint" />
          </mxGeometry>
        </mxCell>
        <mxCell id="VO9kx1iVmAky1tUp0VM4-9" value="TypeORM CLI will execute &lt;i&gt;only&lt;/i&gt;&amp;nbsp;our entity files + the migration file, then connect to the DB and make the changes" style="rounded=0;whiteSpace=wrap;html=1;fontSize=12;align=center;fontStyle=1;fillColor=#dae8fc;strokeColor=#6c8ebf;" vertex="1" parent="VO9kx1iVmAky1tUp0VM4-1">
          <mxGeometry x="890" y="437" width="180" height="60" as="geometry" />
        </mxCell>
        <mxCell id="VO9kx1iVmAky1tUp0VM4-11" value="&lt;i&gt;Nothing related to Nest will get executed!&lt;/i&gt;" style="text;html=1;strokeColor=none;fillColor=none;align=center;verticalAlign=middle;whiteSpace=wrap;rounded=0;fontSize=12;" vertex="1" parent="VO9kx1iVmAky1tUp0VM4-1">
          <mxGeometry x="912.5" y="497" width="135" height="35" as="geometry" />
        </mxCell>
      </root>
    </mxGraphModel>
  </diagram>
  <diagram id="eF469DYvoIlfN_cV62gr" name="09 - connection">
    <mxGraphModel dx="988" dy="570" grid="1" gridSize="10" guides="1" tooltips="1" connect="1" arrows="1" fold="1" page="1" pageScale="1" pageWidth="1920" pageHeight="1200" math="0" shadow="0">
      <root>
        <mxCell id="sMnPXlyzORhdm_NYuNqp-0" />
        <mxCell id="sMnPXlyzORhdm_NYuNqp-1" parent="sMnPXlyzORhdm_NYuNqp-0" />
        <mxCell id="sMnPXlyzORhdm_NYuNqp-2" value="AppModule" style="rounded=0;whiteSpace=wrap;html=1;fontSize=12;align=center;fontStyle=1;fillColor=#dae8fc;strokeColor=#6c8ebf;" parent="sMnPXlyzORhdm_NYuNqp-1" vertex="1">
          <mxGeometry x="590" y="330" width="220" height="30" as="geometry" />
        </mxCell>
        <mxCell id="sMnPXlyzORhdm_NYuNqp-3" value="" style="rounded=0;whiteSpace=wrap;html=1;fontSize=12;align=center;fontStyle=1;fillColor=#dae8fc;strokeColor=#6c8ebf;" parent="sMnPXlyzORhdm_NYuNqp-1" vertex="1">
          <mxGeometry x="590" y="360" width="220" height="120" as="geometry" />
        </mxCell>
        <mxCell id="sMnPXlyzORhdm_NYuNqp-7" style="edgeStyle=orthogonalEdgeStyle;rounded=0;orthogonalLoop=1;jettySize=auto;html=1;exitX=0.5;exitY=1;exitDx=0;exitDy=0;fontSize=12;" parent="sMnPXlyzORhdm_NYuNqp-1" source="sMnPXlyzORhdm_NYuNqp-4" target="sMnPXlyzORhdm_NYuNqp-6" edge="1">
          <mxGeometry relative="1" as="geometry" />
        </mxCell>
        <mxCell id="sMnPXlyzORhdm_NYuNqp-4" value="ConfigService" style="rounded=0;whiteSpace=wrap;html=1;fontSize=12;align=center;" parent="sMnPXlyzORhdm_NYuNqp-1" vertex="1">
          <mxGeometry x="600" y="370" width="200" height="30" as="geometry" />
        </mxCell>
        <mxCell id="sMnPXlyzORhdm_NYuNqp-6" value="{ type: &#39;sqlite&#39;, database: &#39;db.sqlite&#39;, entities: [User, Report] }" style="rounded=0;whiteSpace=wrap;html=1;fontSize=12;align=center;" parent="sMnPXlyzORhdm_NYuNqp-1" vertex="1">
          <mxGeometry x="600" y="425" width="200" height="40" as="geometry" />
        </mxCell>
        <mxCell id="sMnPXlyzORhdm_NYuNqp-8" value="" style="shape=curlyBracket;whiteSpace=wrap;html=1;rounded=1;fontSize=12;align=center;rotation=-180;" parent="sMnPXlyzORhdm_NYuNqp-1" vertex="1">
          <mxGeometry x="807" y="425" width="30" height="40" as="geometry" />
        </mxCell>
        <mxCell id="sMnPXlyzORhdm_NYuNqp-9" value="TypeORM needs these options to connect to the DB" style="text;html=1;strokeColor=none;fillColor=none;align=left;verticalAlign=middle;whiteSpace=wrap;rounded=0;fontSize=12;fontStyle=2" parent="sMnPXlyzORhdm_NYuNqp-1" vertex="1">
          <mxGeometry x="837" y="435" width="103" height="20" as="geometry" />
        </mxCell>
      </root>
    </mxGraphModel>
  </diagram>
  <diagram id="UGMOjiEMWXLEabnF5F2Y" name="11 - config">
    <mxGraphModel dx="469" dy="289" grid="1" gridSize="10" guides="1" tooltips="1" connect="1" arrows="1" fold="1" page="1" pageScale="1" pageWidth="1920" pageHeight="1200" math="0" shadow="0">
      <root>
        <mxCell id="A4trFnytcPuq--f7RyAH-0" />
        <mxCell id="A4trFnytcPuq--f7RyAH-1" parent="A4trFnytcPuq--f7RyAH-0" />
        <mxCell id="A4trFnytcPuq--f7RyAH-2" value="typeorm.io/#/using-ormconfig" style="rounded=0;whiteSpace=wrap;html=1;fontSize=18;align=center;fontStyle=1;fillColor=#dae8fc;strokeColor=#6c8ebf;" vertex="1" parent="A4trFnytcPuq--f7RyAH-1">
          <mxGeometry x="740" y="450" width="300" height="60" as="geometry" />
        </mxCell>
      </root>
    </mxGraphModel>
  </diagram>
  <diagram id="dZ-RlxIfExRe8znAXCr6" name="10 - app">
    <mxGraphModel dx="988" dy="570" grid="1" gridSize="10" guides="1" tooltips="1" connect="1" arrows="1" fold="1" page="1" pageScale="1" pageWidth="1920" pageHeight="1200" math="0" shadow="0">
      <root>
        <mxCell id="WLgUnpl2tnn58v6KURTV-0" />
        <mxCell id="WLgUnpl2tnn58v6KURTV-1" parent="WLgUnpl2tnn58v6KURTV-0" />
        <mxCell id="WLgUnpl2tnn58v6KURTV-2" value="Our App During &lt;font style=&quot;font-size: 17px&quot;&gt;Dev&lt;/font&gt;" style="rounded=0;whiteSpace=wrap;html=1;fontSize=12;align=center;fillColor=#dae8fc;strokeColor=#6c8ebf;fontStyle=1" parent="WLgUnpl2tnn58v6KURTV-1" vertex="1">
          <mxGeometry x="585" y="310" width="145" height="30" as="geometry" />
        </mxCell>
        <mxCell id="WLgUnpl2tnn58v6KURTV-3" value="" style="rounded=0;whiteSpace=wrap;html=1;fontSize=12;align=center;fillColor=#dae8fc;strokeColor=#6c8ebf;fontStyle=1" parent="WLgUnpl2tnn58v6KURTV-1" vertex="1">
          <mxGeometry x="585" y="340" width="145" height="80" as="geometry" />
        </mxCell>
        <mxCell id="WLgUnpl2tnn58v6KURTV-4" value="TypeORM" style="rounded=0;whiteSpace=wrap;html=1;fontSize=12;align=center;fontStyle=1;fillColor=#ffe6cc;strokeColor=#d79b00;" parent="WLgUnpl2tnn58v6KURTV-1" vertex="1">
          <mxGeometry x="622.5" y="350" width="70" height="60" as="geometry" />
        </mxCell>
        <mxCell id="WLgUnpl2tnn58v6KURTV-7" value="TypeORM CLI" style="rounded=0;whiteSpace=wrap;html=1;fontSize=12;align=center;fontStyle=1;fillColor=#ffe6cc;strokeColor=#d79b00;" parent="WLgUnpl2tnn58v6KURTV-1" vertex="1">
          <mxGeometry x="940" y="360" width="120" height="60" as="geometry" />
        </mxCell>
        <mxCell id="dYnhLJhXuM0B_IJnZGpI-1" style="edgeStyle=orthogonalEdgeStyle;rounded=0;orthogonalLoop=1;jettySize=auto;html=1;exitX=0.5;exitY=0;exitDx=0;exitDy=0;entryX=0.5;entryY=1;entryDx=0;entryDy=0;fontSize=20;" parent="WLgUnpl2tnn58v6KURTV-1" source="WLgUnpl2tnn58v6KURTV-14" target="Pezz9t7ke-9HGrKePHlg-1" edge="1">
          <mxGeometry relative="1" as="geometry" />
        </mxCell>
        <mxCell id="dYnhLJhXuM0B_IJnZGpI-2" style="edgeStyle=orthogonalEdgeStyle;rounded=0;orthogonalLoop=1;jettySize=auto;html=1;exitX=0.5;exitY=0;exitDx=0;exitDy=0;fontSize=20;" parent="WLgUnpl2tnn58v6KURTV-1" source="WLgUnpl2tnn58v6KURTV-14" target="WLgUnpl2tnn58v6KURTV-3" edge="1">
          <mxGeometry relative="1" as="geometry" />
        </mxCell>
        <mxCell id="dYnhLJhXuM0B_IJnZGpI-3" style="edgeStyle=orthogonalEdgeStyle;rounded=0;orthogonalLoop=1;jettySize=auto;html=1;exitX=0.5;exitY=0;exitDx=0;exitDy=0;fontSize=20;entryX=0.5;entryY=1;entryDx=0;entryDy=0;" parent="WLgUnpl2tnn58v6KURTV-1" target="WLgUnpl2tnn58v6KURTV-7" edge="1">
          <mxGeometry relative="1" as="geometry">
            <mxPoint x="830" y="495" as="sourcePoint" />
            <mxPoint x="1000" y="425" as="targetPoint" />
            <Array as="points">
              <mxPoint x="830" y="455" />
              <mxPoint x="1000" y="455" />
            </Array>
          </mxGeometry>
        </mxCell>
        <mxCell id="WLgUnpl2tnn58v6KURTV-14" value="ormconfig.js file" style="rounded=0;whiteSpace=wrap;html=1;fontSize=20;align=center;fontStyle=1;fillColor=#f8cecc;strokeColor=#b85450;" parent="WLgUnpl2tnn58v6KURTV-1" vertex="1">
          <mxGeometry x="755" y="490" width="150" height="70" as="geometry" />
        </mxCell>
        <mxCell id="Pezz9t7ke-9HGrKePHlg-0" value="Our App During &lt;font style=&quot;font-size: 16px&quot;&gt;Testing&lt;/font&gt;" style="rounded=0;whiteSpace=wrap;html=1;fontSize=12;align=center;fillColor=#dae8fc;strokeColor=#6c8ebf;fontStyle=1" parent="WLgUnpl2tnn58v6KURTV-1" vertex="1">
          <mxGeometry x="750" y="310" width="160" height="30" as="geometry" />
        </mxCell>
        <mxCell id="Pezz9t7ke-9HGrKePHlg-1" value="" style="rounded=0;whiteSpace=wrap;html=1;fontSize=12;align=center;fillColor=#dae8fc;strokeColor=#6c8ebf;fontStyle=1" parent="WLgUnpl2tnn58v6KURTV-1" vertex="1">
          <mxGeometry x="750" y="340" width="160" height="80" as="geometry" />
        </mxCell>
        <mxCell id="Pezz9t7ke-9HGrKePHlg-2" value="TypeORM" style="rounded=0;whiteSpace=wrap;html=1;fontSize=12;align=center;fontStyle=1;fillColor=#ffe6cc;strokeColor=#d79b00;" parent="WLgUnpl2tnn58v6KURTV-1" vertex="1">
          <mxGeometry x="795" y="350" width="70" height="60" as="geometry" />
        </mxCell>
      </root>
    </mxGraphModel>
  </diagram>
  <diagram id="a5jZIAPq1fqtPUFrJmAC" name="Page-13">
    <mxGraphModel dx="988" dy="570" grid="1" gridSize="10" guides="1" tooltips="1" connect="1" arrows="1" fold="1" page="1" pageScale="1" pageWidth="1920" pageHeight="1200" math="0" shadow="0">
      <root>
        <mxCell id="ACXaLz9TdmSZIt1X2gSd-0" />
        <mxCell id="ACXaLz9TdmSZIt1X2gSd-1" parent="ACXaLz9TdmSZIt1X2gSd-0" />
        <mxCell id="mummIdppcKjcBaalQgx_-0" value="typeorm.io/#/using-cli" style="rounded=0;whiteSpace=wrap;html=1;fontSize=20;align=center;fillColor=#dae8fc;strokeColor=#6c8ebf;fontStyle=1" parent="ACXaLz9TdmSZIt1X2gSd-1" vertex="1">
          <mxGeometry x="590" y="380" width="290" height="60" as="geometry" />
        </mxCell>
      </root>
    </mxGraphModel>
  </diagram>
  <diagram id="HWrSKsvWR0aSPXyzw1S9" name="14 - heroku">
    <mxGraphModel dx="670" dy="412" grid="1" gridSize="10" guides="1" tooltips="1" connect="1" arrows="1" fold="1" page="1" pageScale="1" pageWidth="1920" pageHeight="1200" math="0" shadow="0">
      <root>
        <mxCell id="H0QiZy4IIKfT0Cunm-Be-0" />
        <mxCell id="H0QiZy4IIKfT0Cunm-Be-1" parent="H0QiZy4IIKfT0Cunm-Be-0" />
        <mxCell id="H0QiZy4IIKfT0Cunm-Be-2" value="Your Computer" style="rounded=0;whiteSpace=wrap;html=1;fontSize=20;align=center;fillColor=#dae8fc;strokeColor=#6c8ebf;" vertex="1" parent="H0QiZy4IIKfT0Cunm-Be-1">
          <mxGeometry x="540" y="260" width="210" height="30" as="geometry" />
        </mxCell>
        <mxCell id="H0QiZy4IIKfT0Cunm-Be-22" style="edgeStyle=orthogonalEdgeStyle;rounded=0;orthogonalLoop=1;jettySize=auto;html=1;exitX=0.5;exitY=1;exitDx=0;exitDy=0;entryX=0.5;entryY=0;entryDx=0;entryDy=0;fontSize=10;" edge="1" parent="H0QiZy4IIKfT0Cunm-Be-1" source="H0QiZy4IIKfT0Cunm-Be-4" target="H0QiZy4IIKfT0Cunm-Be-9">
          <mxGeometry relative="1" as="geometry" />
        </mxCell>
        <mxCell id="H0QiZy4IIKfT0Cunm-Be-4" value="" style="rounded=0;whiteSpace=wrap;html=1;fontSize=20;align=center;fillColor=#dae8fc;strokeColor=#6c8ebf;" vertex="1" parent="H0QiZy4IIKfT0Cunm-Be-1">
          <mxGeometry x="540" y="290" width="210" height="110" as="geometry" />
        </mxCell>
        <mxCell id="H0QiZy4IIKfT0Cunm-Be-5" value="Git Repo" style="rounded=0;whiteSpace=wrap;html=1;fontSize=20;align=center;fillColor=#f5f5f5;strokeColor=#666666;fontColor=#333333;" vertex="1" parent="H0QiZy4IIKfT0Cunm-Be-1">
          <mxGeometry x="570" y="300" width="150" height="30" as="geometry" />
        </mxCell>
        <mxCell id="H0QiZy4IIKfT0Cunm-Be-6" value="" style="rounded=0;whiteSpace=wrap;html=1;fontSize=20;align=center;fillColor=#f5f5f5;strokeColor=#666666;fontColor=#333333;" vertex="1" parent="H0QiZy4IIKfT0Cunm-Be-1">
          <mxGeometry x="570" y="330" width="150" height="60" as="geometry" />
        </mxCell>
        <mxCell id="H0QiZy4IIKfT0Cunm-Be-7" value="Nest App" style="rounded=0;whiteSpace=wrap;html=1;fontSize=20;align=center;" vertex="1" parent="H0QiZy4IIKfT0Cunm-Be-1">
          <mxGeometry x="595" y="340" width="100" height="40" as="geometry" />
        </mxCell>
        <mxCell id="H0QiZy4IIKfT0Cunm-Be-8" value="Heroku" style="rounded=0;whiteSpace=wrap;html=1;fontSize=20;align=center;fillColor=#d5e8d4;strokeColor=#82b366;fontStyle=1" vertex="1" parent="H0QiZy4IIKfT0Cunm-Be-1">
          <mxGeometry x="540" y="570" width="210" height="30" as="geometry" />
        </mxCell>
        <mxCell id="H0QiZy4IIKfT0Cunm-Be-9" value="" style="rounded=0;whiteSpace=wrap;html=1;fontSize=20;align=center;fillColor=#d5e8d4;strokeColor=#82b366;" vertex="1" parent="H0QiZy4IIKfT0Cunm-Be-1">
          <mxGeometry x="540" y="460" width="210" height="110" as="geometry" />
        </mxCell>
        <mxCell id="H0QiZy4IIKfT0Cunm-Be-11" style="edgeStyle=orthogonalEdgeStyle;rounded=0;orthogonalLoop=1;jettySize=auto;html=1;exitX=0;exitY=0.5;exitDx=0;exitDy=0;entryX=1;entryY=0.5;entryDx=0;entryDy=0;fontSize=20;" edge="1" parent="H0QiZy4IIKfT0Cunm-Be-1" source="H0QiZy4IIKfT0Cunm-Be-10" target="H0QiZy4IIKfT0Cunm-Be-9">
          <mxGeometry relative="1" as="geometry" />
        </mxCell>
        <mxCell id="H0QiZy4IIKfT0Cunm-Be-10" value="Postgres DB" style="rounded=0;whiteSpace=wrap;html=1;fontSize=20;align=center;" vertex="1" parent="H0QiZy4IIKfT0Cunm-Be-1">
          <mxGeometry x="930" y="485" width="150" height="60" as="geometry" />
        </mxCell>
        <mxCell id="H0QiZy4IIKfT0Cunm-Be-12" value="Here&#39;s how to connect:" style="rounded=0;whiteSpace=wrap;html=1;fontSize=10;align=center;fontStyle=2;fillColor=#f5f5f5;strokeColor=#666666;fontColor=#333333;" vertex="1" parent="H0QiZy4IIKfT0Cunm-Be-1">
          <mxGeometry x="772" y="474" width="140" height="20" as="geometry" />
        </mxCell>
        <mxCell id="H0QiZy4IIKfT0Cunm-Be-13" value="process.env.DATABASE_URL" style="rounded=0;whiteSpace=wrap;html=1;fontSize=10;align=center;fontStyle=2;fillColor=#f8cecc;strokeColor=#b85450;" vertex="1" parent="H0QiZy4IIKfT0Cunm-Be-1">
          <mxGeometry x="772" y="494" width="140" height="20" as="geometry" />
        </mxCell>
        <mxCell id="H0QiZy4IIKfT0Cunm-Be-19" value="Git Repo" style="rounded=0;whiteSpace=wrap;html=1;fontSize=20;align=center;fillColor=#f5f5f5;strokeColor=#666666;fontColor=#333333;" vertex="1" parent="H0QiZy4IIKfT0Cunm-Be-1">
          <mxGeometry x="570" y="470" width="150" height="30" as="geometry" />
        </mxCell>
        <mxCell id="H0QiZy4IIKfT0Cunm-Be-20" value="" style="rounded=0;whiteSpace=wrap;html=1;fontSize=20;align=center;fillColor=#f5f5f5;strokeColor=#666666;fontColor=#333333;" vertex="1" parent="H0QiZy4IIKfT0Cunm-Be-1">
          <mxGeometry x="570" y="500" width="150" height="60" as="geometry" />
        </mxCell>
        <mxCell id="H0QiZy4IIKfT0Cunm-Be-21" value="Nest App" style="rounded=0;whiteSpace=wrap;html=1;fontSize=20;align=center;" vertex="1" parent="H0QiZy4IIKfT0Cunm-Be-1">
          <mxGeometry x="595" y="510" width="100" height="40" as="geometry" />
        </mxCell>
      </root>
    </mxGraphModel>
  </diagram>
</mxfile>
